<?xml version="1.0" standalone="no"?>
<!DOCTYPE svg PUBLIC "-//W3C//DTD SVG 20010904//EN"
 "http://www.w3.org/TR/2001/REC-SVG-20010904/DTD/svg10.dtd">
<svg version="1.0" xmlns="http://www.w3.org/2000/svg"
 width="500.000000pt" height="500.000000pt" viewBox="0 0 500.000000 500.000000"
 preserveAspectRatio="xMidYMid meet">
<metadata>
Created by potrace 1.14, written by Peter Selinger 2001-2017
</metadata>
<g transform="translate(0.000000,500.000000) scale(0.100000,-0.100000)"
fill="#000000" stroke="none">
<path d="M942 4118 c3 -7 15 -14 29 -16 70 -8 94 -16 128 -48 57 -51 78 -108
106 -286 4 -29 11 -38 25 -38 17 0 20 9 22 93 l3 92 82 -175 c45 -96 188 -404
318 -685 195 -419 402 -864 752 -1613 24 -51 39 -72 50 -70 11 2 49 91 118
278 536 1446 727 1958 799 2150 l86 225 -4 -1260 c-2 -909 -6 -1276 -15 -1318
-35 -175 -91 -247 -202 -262 -32 -5 -49 -12 -49 -21 0 -12 63 -14 400 -14 332
0 400 2 400 14 0 9 -17 16 -47 20 -93 12 -154 72 -184 183 -36 130 -40 289
-36 1368 3 905 6 1050 20 1119 32 159 93 234 197 244 33 3 50 9 50 18 0 12
-47 14 -262 14 l-263 0 -444 -1195 c-245 -657 -447 -1195 -450 -1195 -3 0
-262 538 -575 1195 l-569 1195 -244 0 c-191 0 -244 -3 -241 -12z"/>
<path d="M930 3610 c0 -14 49 -110 55 -110 3 0 -6 23 -20 50 -50 98 14 42 70
-61 19 -35 35 -60 35 -55 0 17 -62 123 -90 154 -29 32 -50 41 -50 22z"/>
<path d="M1000 3471 c5 -11 15 -23 21 -27 6 -3 3 5 -6 20 -20 30 -30 35 -15 7z"/>
<path d="M1044 3413 c10 -13 23 -20 29 -16 6 4 8 0 4 -10 -3 -8 0 -21 8 -27 8
-6 17 -25 20 -41 4 -16 11 -31 16 -34 5 -4 6 2 2 11 -12 31 44 -17 58 -49 8
-20 14 -25 20 -16 4 7 3 22 -4 33 -6 12 -12 30 -14 41 -5 32 -12 45 -23 45 -5
0 -10 -8 -10 -17 0 -15 2 -16 10 -3 5 8 10 11 10 5 0 -5 -4 -16 -8 -23 -11
-16 -54 29 -75 78 -9 19 -16 29 -16 21 -1 -11 -6 -10 -23 5 l-23 19 19 -22z"/>
<path d="M1186 3375 c3 -11 11 -33 16 -49 8 -22 8 -30 -3 -37 -11 -7 -10 -9 4
-9 22 0 21 25 -3 75 -11 22 -18 31 -14 20z"/>
<path d="M1207 3171 c6 -41 5 -43 -16 -36 -21 6 -22 5 -10 -16 8 -16 9 -24 1
-27 -7 -2 -5 -20 8 -53 25 -62 25 -61 -5 -53 -31 8 -31 1 -3 -44 21 -35 39
-30 20 5 -7 12 -6 20 5 28 13 10 13 15 -1 49 -20 47 -20 47 0 39 15 -5 15 -3
0 26 -15 27 -15 31 -1 31 17 0 20 42 5 75 -6 13 -7 6 -3 -24z"/>
<path d="M1303 2860 c3 -41 9 -84 13 -95 4 -12 -18 3 -52 36 -32 30 -68 62
-79 70 -19 14 -19 13 -2 -11 9 -13 17 -31 17 -38 0 -12 -3 -12 -17 -1 -15 12
-16 12 -9 -6 4 -11 13 -33 18 -48 6 -15 12 -26 14 -24 3 2 0 16 -5 31 -7 17
-7 26 -1 26 6 0 10 8 10 18 0 11 25 -9 74 -58 41 -41 72 -78 70 -82 -3 -4 0
-16 6 -25 9 -15 10 -14 4 7 -6 24 -4 23 31 -10 20 -19 58 -62 83 -95 50 -66
70 -89 57 -65 -17 31 -62 87 -131 167 -61 69 -74 90 -84 136 -6 30 -10 70 -8
90 1 20 -2 40 -6 44 -5 4 -6 -26 -3 -67z"/>
<path d="M936 2820 c4 -8 24 -35 45 -60 20 -25 44 -60 53 -77 9 -18 19 -33 22
-33 2 0 -1 10 -7 23 -7 12 25 -13 70 -56 94 -87 268 -221 333 -255 24 -13 34
-17 24 -10 -165 113 -326 248 -451 380 -54 57 -94 96 -89 88z"/>
<path d="M770 2773 c0 -14 306 -309 354 -341 59 -39 80 -41 71 -9 -8 26 -64
127 -71 127 -3 0 10 -27 28 -59 18 -33 30 -63 26 -66 -13 -14 -98 57 -234 195
-130 132 -174 171 -174 153z"/>
<path d="M1160 2721 c0 -3 9 -21 21 -40 21 -35 38 -37 20 -3 -14 26 -14 33 0
30 6 -2 13 2 15 7 2 6 -10 10 -26 11 -17 1 -30 -2 -30 -5z"/>
<path d="M880 2624 c0 -6 15 -23 33 -40 l32 -29 -30 35 c-16 19 -31 37 -32 39
-2 2 -3 0 -3 -5z"/>
<path d="M1412 2549 c13 -23 60 -80 104 -128 76 -80 104 -98 88 -57 -5 12 -9
14 -14 6 -9 -14 -131 115 -167 177 -32 55 -42 56 -11 2z"/>
<path d="M1000 2495 c7 -11 37 -45 66 -75 91 -97 340 -406 372 -461 39 -70 65
-156 49 -162 -9 -3 -9 -8 1 -18 20 -22 32 6 20 50 -23 84 -92 190 -234 360
-128 154 -313 359 -274 306z"/>
<path d="M1560 2430 c11 -22 23 -40 25 -40 3 0 -4 18 -15 40 -11 22 -23 40
-25 40 -3 0 4 -18 15 -40z"/>
<path d="M1251 1968 c-1 -53 -4 -68 -16 -68 -12 0 -15 -17 -15 -87 -1 -120
-17 -336 -31 -403 -16 -78 -55 -156 -93 -185 -18 -14 -59 -31 -91 -38 -32 -7
-61 -19 -63 -25 -3 -9 94 -12 402 -12 336 0 406 2 406 14 0 9 -19 15 -57 20
-238 27 -391 295 -432 759 l-8 92 -2 -67z"/>
</g>
</svg>
